<svg xmlns="http://www.w3.org/2000/svg" xmlns:xlink="http://www.w3.org/1999/xlink" width="300" zoomAndPan="magnify" viewBox="0 0 224.87999 149.999998" height="200" preserveAspectRatio="xMidYMid meet" version="1.0"><defs><clipPath id="06d1c7d3a7"><path d="M 37.480469 0.0390625 L 187.398438 0.0390625 L 187.398438 149.960938 L 37.480469 149.960938 Z M 37.480469 0.0390625 " clip-rule="nonzero"/></clipPath></defs><path fill="#000000" d="M 64.796875 63.851562 C 67.523438 66.578125 71.707031 62.445312 68.953125 59.691406 L 59.273438 50.011719 L 68.953125 40.332031 C 70.101562 39.1875 70.101562 37.324219 68.953125 36.175781 C 67.808594 35.027344 65.945312 35.027344 64.796875 36.175781 L 53.039062 47.933594 C 51.890625 49.082031 51.890625 50.945312 53.039062 52.09375 Z M 64.796875 63.851562 " fill-opacity="1" fill-rule="nonzero"/><path fill="#000000" d="M 98.351562 63.851562 L 110.109375 52.09375 C 111.257812 50.945312 111.257812 49.082031 110.109375 47.933594 L 98.351562 36.175781 C 97.203125 35.027344 95.339844 35.027344 94.191406 36.175781 C 93.046875 37.324219 93.046875 39.183594 94.191406 40.332031 L 103.875 50.011719 L 94.191406 59.691406 C 91.4375 62.449219 95.632812 66.570312 98.351562 63.851562 Z M 98.351562 63.851562 " fill-opacity="1" fill-rule="nonzero"/><path fill="#000000" d="M 78.636719 64.710938 C 79.953125 64.710938 81.152344 63.820312 81.484375 62.484375 L 87.367188 38.96875 C 87.757812 37.394531 86.800781 35.796875 85.226562 35.402344 C 83.652344 35.007812 82.054688 35.96875 81.660156 37.542969 L 75.78125 61.058594 C 75.320312 62.910156 76.722656 64.710938 78.636719 64.710938 Z M 78.636719 64.710938 " fill-opacity="1" fill-rule="nonzero"/><path fill="#000000" d="M 110.96875 82.347656 C 109.347656 82.347656 108.03125 83.664062 108.03125 85.289062 C 108.03125 86.910156 109.347656 88.226562 110.96875 88.226562 L 169.761719 88.226562 C 171.386719 88.226562 172.703125 86.910156 172.703125 85.289062 C 172.703125 83.664062 171.386719 82.347656 169.761719 82.347656 L 166.824219 82.347656 L 166.824219 58.832031 C 166.824219 57.207031 165.507812 55.890625 163.882812 55.890625 C 162.261719 55.890625 160.945312 57.207031 160.945312 58.832031 L 160.945312 82.347656 L 155.0625 82.347656 L 155.0625 52.953125 C 155.0625 51.328125 153.746094 50.011719 152.125 50.011719 C 150.5 50.011719 149.183594 51.328125 149.183594 52.953125 L 149.183594 82.347656 L 143.304688 82.347656 L 143.304688 70.589844 C 143.304688 68.96875 141.988281 67.652344 140.367188 67.652344 C 138.742188 67.652344 137.425781 68.96875 137.425781 70.589844 L 137.425781 82.347656 L 131.546875 82.347656 L 131.546875 64.710938 C 131.546875 63.085938 130.230469 61.773438 128.609375 61.773438 C 126.984375 61.773438 125.667969 63.085938 125.667969 64.710938 L 125.667969 82.347656 L 119.789062 82.347656 L 119.789062 73.53125 C 119.789062 71.90625 118.472656 70.589844 116.847656 70.589844 C 115.226562 70.589844 113.910156 71.90625 113.910156 73.53125 L 113.910156 82.347656 Z M 110.96875 82.347656 " fill-opacity="1" fill-rule="nonzero"/><path fill="#000000" d="M 116.847656 20.617188 L 169.761719 20.617188 C 171.386719 20.617188 172.703125 19.300781 172.703125 17.675781 C 172.703125 16.054688 171.386719 14.738281 169.761719 14.738281 L 116.847656 14.738281 C 115.226562 14.738281 113.910156 16.054688 113.910156 17.675781 C 113.910156 19.300781 115.226562 20.617188 116.847656 20.617188 Z M 116.847656 20.617188 " fill-opacity="1" fill-rule="nonzero"/><path fill="#000000" d="M 116.847656 32.375 L 152.125 32.375 C 153.746094 32.375 155.0625 31.058594 155.0625 29.4375 C 155.0625 27.8125 153.746094 26.496094 152.125 26.496094 L 116.847656 26.496094 C 115.226562 26.496094 113.910156 27.8125 113.910156 29.4375 C 113.910156 31.058594 115.226562 32.375 116.847656 32.375 Z M 116.847656 32.375 " fill-opacity="1" fill-rule="nonzero"/><path fill="#000000" d="M 172.703125 111.746094 C 172.703125 112.136719 172.628906 112.511719 172.476562 112.871094 C 172.328125 113.230469 172.117188 113.546875 171.839844 113.824219 C 171.566406 114.097656 171.246094 114.3125 170.886719 114.460938 C 170.527344 114.609375 170.152344 114.683594 169.761719 114.683594 C 169.371094 114.683594 168.996094 114.609375 168.636719 114.460938 C 168.277344 114.3125 167.960938 114.097656 167.683594 113.824219 C 167.40625 113.546875 167.195312 113.230469 167.046875 112.871094 C 166.898438 112.511719 166.824219 112.136719 166.824219 111.746094 C 166.824219 111.355469 166.898438 110.980469 167.046875 110.621094 C 167.195312 110.261719 167.40625 109.941406 167.683594 109.667969 C 167.960938 109.390625 168.277344 109.179688 168.636719 109.027344 C 168.996094 108.878906 169.371094 108.804688 169.761719 108.804688 C 170.152344 108.804688 170.527344 108.878906 170.886719 109.027344 C 171.246094 109.179688 171.566406 109.390625 171.839844 109.667969 C 172.117188 109.941406 172.328125 110.261719 172.476562 110.621094 C 172.628906 110.980469 172.703125 111.355469 172.703125 111.746094 Z M 172.703125 111.746094 " fill-opacity="1" fill-rule="nonzero"/><path fill="#000000" d="M 158.003906 108.804688 L 155.0625 108.804688 C 153.441406 108.804688 152.125 110.121094 152.125 111.746094 C 152.125 113.367188 153.441406 114.683594 155.0625 114.683594 L 158.003906 114.683594 C 159.628906 114.683594 160.945312 113.367188 160.945312 111.746094 C 160.945312 110.121094 159.628906 108.804688 158.003906 108.804688 Z M 158.003906 108.804688 " fill-opacity="1" fill-rule="nonzero"/><path fill="#000000" d="M 143.304688 108.804688 L 140.367188 108.804688 C 138.742188 108.804688 137.425781 110.121094 137.425781 111.746094 C 137.425781 113.367188 138.742188 114.683594 140.367188 114.683594 L 143.304688 114.683594 C 144.929688 114.683594 146.246094 113.367188 146.246094 111.746094 C 146.246094 110.121094 144.929688 108.804688 143.304688 108.804688 Z M 143.304688 108.804688 " fill-opacity="1" fill-rule="nonzero"/><g clip-path="url(#06d1c7d3a7)"><path fill="#000000" d="M 171.253906 0.0390625 L 53.625 0.0390625 C 44.722656 0.0390625 37.480469 7.28125 37.480469 16.183594 L 37.480469 110.296875 C 37.480469 119.199219 44.722656 126.441406 53.625 126.441406 L 97.742188 126.441406 L 97.742188 132.324219 L 94.800781 132.324219 C 86.699219 132.324219 80.105469 138.914062 80.105469 147.019531 C 80.105469 148.644531 81.421875 149.960938 83.042969 149.960938 L 141.835938 149.960938 C 143.460938 149.960938 144.777344 148.644531 144.777344 147.019531 C 144.777344 138.914062 138.183594 132.324219 130.078125 132.324219 L 127.136719 132.324219 L 127.136719 126.441406 L 171.253906 126.441406 C 180.15625 126.441406 187.398438 119.199219 187.398438 110.296875 L 187.398438 16.183594 C 187.398438 7.28125 180.15625 0.0390625 171.253906 0.0390625 Z M 53.625 5.917969 L 171.253906 5.917969 C 176.914062 5.917969 181.519531 10.523438 181.519531 16.183594 L 181.519531 97.046875 L 43.359375 97.046875 L 43.359375 16.183594 C 43.359375 10.523438 47.964844 5.917969 53.625 5.917969 Z M 138.394531 144.082031 L 86.488281 144.082031 C 87.699219 140.660156 90.96875 138.203125 94.800781 138.203125 L 130.078125 138.203125 C 133.910156 138.203125 137.179688 140.660156 138.394531 144.082031 Z M 121.257812 132.324219 L 103.621094 132.324219 L 103.621094 126.441406 L 121.257812 126.441406 Z M 171.253906 120.5625 L 53.625 120.5625 C 47.964844 120.5625 43.359375 115.960938 43.359375 110.296875 L 43.359375 102.925781 L 181.519531 102.925781 L 181.519531 110.296875 C 181.519531 115.960938 176.914062 120.5625 171.253906 120.5625 Z M 171.253906 120.5625 " fill-opacity="1" fill-rule="nonzero"/></g></svg>