<svg xmlns="http://www.w3.org/2000/svg" xmlns:xlink="http://www.w3.org/1999/xlink" width="300" zoomAndPan="magnify" viewBox="0 0 224.87999 149.999998" height="200" preserveAspectRatio="xMidYMid meet" version="1.0"><defs><clipPath id="24c7db9e75"><path d="M 21.628906 0.0390625 L 203.03125 0.0390625 L 203.03125 130 L 21.628906 130 Z M 21.628906 0.0390625 " clip-rule="nonzero"/></clipPath><clipPath id="767e53d58a"><path d="M 21.628906 133 L 203.03125 133 L 203.03125 149.960938 L 21.628906 149.960938 Z M 21.628906 133 " clip-rule="nonzero"/></clipPath></defs><g clip-path="url(#24c7db9e75)"><path fill="#000000" d="M 194.410156 0.046875 L 30.253906 0.046875 C 25.496094 0.046875 21.628906 3.921875 21.628906 8.683594 L 21.628906 120.808594 C 21.628906 125.566406 25.496094 129.441406 30.253906 129.441406 L 194.410156 129.441406 C 199.164062 129.441406 203.03125 125.566406 203.03125 120.808594 L 203.03125 8.683594 C 203.03125 3.921875 199.164062 0.046875 194.410156 0.046875 Z M 200.152344 120.808594 C 200.152344 123.976562 197.574219 126.558594 194.410156 126.558594 L 30.253906 126.558594 C 27.085938 126.558594 24.507812 123.976562 24.507812 120.808594 L 24.507812 8.683594 C 24.507812 5.511719 27.085938 2.929688 30.253906 2.929688 L 194.410156 2.929688 C 197.574219 2.929688 200.152344 5.511719 200.152344 8.683594 Z M 200.152344 120.808594 " fill-opacity="1" fill-rule="nonzero"/></g><path fill="#000000" d="M 184.113281 10.3125 L 40.546875 10.3125 C 35.792969 10.3125 31.921875 14.183594 31.921875 18.945312 L 31.921875 110.542969 C 31.921875 115.304688 35.792969 119.179688 40.546875 119.179688 L 184.113281 119.179688 C 188.871094 119.179688 192.738281 115.304688 192.738281 110.542969 L 192.738281 18.945312 C 192.738281 14.183594 188.871094 10.3125 184.113281 10.3125 Z M 84.046875 78.945312 C 82.890625 79.742188 80.628906 79.351562 79.054688 77.441406 C 78.042969 76.335938 75.25 73.746094 71.179688 73.558594 C 68.996094 73.484375 67.125 73.960938 65.617188 74.984375 C 64.234375 75.914062 63.1875 77.273438 62.675781 78.816406 C 62.09375 80.59375 60.621094 81.890625 58.921875 82.117188 C 57.472656 82.324219 55.523438 80.570312 53.804688 79.03125 C 50.613281 76.15625 49.367188 75.550781 47.457031 75.285156 C 47.417969 75.28125 47.378906 75.28125 47.339844 75.277344 C 50.882812 71.917969 53.207031 69.371094 54.980469 67.417969 C 57.796875 64.320312 58.851562 63.160156 61.097656 62.738281 C 64.273438 62.144531 66.695312 63.492188 72.363281 67.839844 L 72.378906 67.851562 L 74.320312 69.355469 C 77.125 71.53125 80.589844 74.21875 84.988281 77.34375 C 84.835938 77.921875 84.5625 78.582031 84.046875 78.945312 Z M 120.636719 68.253906 C 120.675781 67.566406 120.226562 66.945312 119.5625 66.773438 C 118.894531 66.597656 118.199219 66.921875 117.902344 67.542969 C 116.179688 71.121094 113.945312 74.457031 111.257812 77.457031 C 109.675781 79.226562 107.972656 80.835938 106.046875 82.378906 C 104.851562 83.335938 103.585938 84.230469 102.195312 85.109375 C 97.109375 82.085938 92.144531 78.867188 87.417969 75.539062 C 82.699219 72.210938 79.03125 69.363281 76.085938 67.078125 L 74.917969 66.171875 C 77.496094 58.332031 88.167969 52.515625 100.308594 52.515625 C 111.40625 52.515625 121.148438 57.160156 124.835938 64.121094 C 122.917969 68.734375 122.867188 72.875 123.03125 74.984375 C 123.085938 75.699219 123.726562 76.265625 124.441406 76.3125 C 124.445312 76.3125 124.449219 76.3125 124.453125 76.3125 C 123.550781 77.808594 122.328125 79.21875 120.84375 80.496094 C 120.398438 77.535156 120.324219 73.445312 120.636719 68.253906 Z M 189.859375 105.0625 C 185.933594 102.925781 182.089844 100.492188 178.417969 97.769531 C 173.839844 94.378906 171.324219 91.902344 169.484375 90.089844 C 167.097656 87.742188 165.652344 86.320312 162.441406 85.558594 C 157.007812 84.289062 152.292969 86.261719 148.136719 88 C 143.898438 89.777344 141.183594 90.785156 138.890625 89.191406 C 138.03125 88.597656 137.59375 87.894531 137.082031 87.082031 C 136.332031 85.875 135.480469 84.511719 133.34375 83.882812 C 130.503906 83.039062 128.132812 84.050781 126.230469 84.863281 C 124.960938 85.40625 123.867188 85.875 123.101562 85.605469 C 122.421875 85.367188 121.929688 84.503906 121.589844 83.597656 C 124.335938 81.503906 126.429688 79.011719 127.722656 76.300781 C 130.9375 76.078125 135.402344 75.121094 139.898438 72.003906 C 146.851562 67.175781 149.289062 60.421875 149.984375 57.917969 L 154.433594 53.496094 C 162.46875 46.039062 169.6875 38.121094 175.96875 29.875 C 181.792969 22.144531 183.460938 19.300781 181.867188 17.703125 C 180.371094 16.222656 177.84375 17.445312 169.582031 23.644531 C 161.382812 29.832031 153.433594 37.023438 145.945312 45.027344 L 141.5 49.449219 C 138.996094 50.144531 132.203125 52.585938 127.359375 59.5 C 126.996094 60.015625 126.671875 60.550781 126.355469 61.085938 C 121.613281 54.148438 111.5625 49.632812 100.308594 49.632812 C 87.210938 49.632812 75.960938 55.707031 72.511719 64.335938 C 68.0625 61.007812 64.804688 59.113281 60.566406 59.90625 C 57.371094 60.507812 55.863281 62.167969 52.855469 65.480469 C 50.699219 67.847656 47.753906 71.09375 42.71875 75.636719 L 40.925781 77.226562 C 38.917969 78.972656 36.882812 80.640625 34.804688 82.289062 L 34.804688 18.945312 C 34.804688 15.773438 37.378906 13.195312 40.546875 13.195312 L 184.113281 13.195312 C 187.28125 13.195312 189.859375 15.773438 189.859375 18.945312 Z M 137.828125 61.574219 C 138.109375 61.859375 138.480469 62 138.847656 62 C 139.214844 62 139.582031 61.859375 139.867188 61.578125 L 145.472656 55.988281 L 147.082031 57.59375 C 146.324219 60.070312 144.078125 65.597656 138.261719 69.632812 C 133.910156 72.648438 129.585938 73.382812 126.710938 73.472656 C 126.398438 73.484375 126.117188 73.492188 125.847656 73.484375 C 125.832031 71.359375 126.148438 68.128906 127.738281 64.625 C 128.277344 63.429688 128.945312 62.261719 129.71875 61.152344 C 133.777344 55.363281 139.339844 53.113281 141.828125 52.355469 L 143.429688 53.953125 L 137.835938 59.535156 C 137.269531 60.097656 137.269531 61.011719 137.828125 61.574219 Z M 144.289062 50.742188 L 146.96875 48.074219 L 151.378906 52.46875 L 148.699219 55.136719 L 146.492188 52.9375 Z M 144.289062 50.742188 " fill-opacity="1" fill-rule="nonzero"/><g clip-path="url(#767e53d58a)"><path fill="#000000" d="M 195.835938 133.390625 L 28.828125 133.390625 C 24.859375 133.390625 21.628906 136.625 21.628906 140.597656 L 21.628906 142.746094 C 21.628906 146.71875 24.859375 149.953125 28.828125 149.953125 L 195.835938 149.953125 C 199.804688 149.953125 203.03125 146.71875 203.03125 142.746094 L 203.03125 140.597656 C 203.03125 136.625 199.804688 133.390625 195.835938 133.390625 Z M 200.152344 142.746094 C 200.152344 145.128906 198.214844 147.070312 195.835938 147.070312 L 28.828125 147.070312 C 26.445312 147.070312 24.507812 145.128906 24.507812 142.746094 L 24.507812 140.597656 C 24.507812 138.214844 26.445312 136.273438 28.828125 136.273438 L 95.441406 136.273438 L 95.441406 141.679688 C 95.441406 142.472656 96.089844 143.121094 96.882812 143.121094 L 127.777344 143.121094 C 128.574219 143.121094 129.21875 142.472656 129.21875 141.679688 L 129.21875 136.273438 L 195.835938 136.273438 C 198.214844 136.273438 200.152344 138.214844 200.152344 140.597656 Z M 200.152344 142.746094 " fill-opacity="1" fill-rule="nonzero"/></g></svg>