<svg xmlns="http://www.w3.org/2000/svg" xmlns:xlink="http://www.w3.org/1999/xlink" width="300" zoomAndPan="magnify" viewBox="0 0 224.87999 149.999998" height="200" preserveAspectRatio="xMidYMid meet" version="1.0"><defs><clipPath id="faffbea69f"><path d="M 34.621094 0.0390625 L 195.035156 0.0390625 L 195.035156 121 L 34.621094 121 Z M 34.621094 0.0390625 " clip-rule="nonzero"/></clipPath><clipPath id="983fc09f6b"><path d="M 34.621094 90 L 195.035156 90 L 195.035156 94 L 34.621094 94 Z M 34.621094 90 " clip-rule="nonzero"/></clipPath><clipPath id="2b5693401e"><path d="M 67 133 L 162 133 L 162 149.960938 L 67 149.960938 Z M 67 133 " clip-rule="nonzero"/></clipPath></defs><path fill="#000000" d="M 112.550781 71.832031 C 112.339844 71.832031 112.128906 71.796875 111.917969 71.722656 C 110.976562 71.375 110.5 70.332031 110.847656 69.390625 L 127.96875 23.292969 C 128.316406 22.355469 129.359375 21.878906 130.304688 22.226562 C 131.242188 22.574219 131.722656 23.617188 131.375 24.554688 L 114.25 70.652344 C 113.984375 71.382812 113.289062 71.832031 112.550781 71.832031 Z M 112.550781 71.832031 " fill-opacity="1" fill-rule="nonzero"/><path fill="#000000" d="M 71.828125 63.238281 C 65.917969 63.238281 61.109375 58.6875 61.109375 53.097656 L 61.109375 32.730469 C 61.109375 31.730469 61.921875 30.917969 62.921875 30.917969 C 63.925781 30.917969 64.738281 31.730469 64.738281 32.730469 L 64.738281 53.097656 C 64.738281 56.691406 67.917969 59.613281 71.828125 59.613281 C 75.742188 59.613281 78.921875 56.691406 78.921875 53.097656 L 78.921875 32.730469 C 78.921875 31.730469 79.734375 30.917969 80.734375 30.917969 C 81.738281 30.917969 82.550781 31.730469 82.550781 32.730469 L 82.550781 53.097656 C 82.550781 58.6875 77.742188 63.238281 71.828125 63.238281 Z M 71.828125 63.238281 " fill-opacity="1" fill-rule="nonzero"/><path fill="#000000" d="M 89.339844 63.238281 C 89.050781 63.238281 88.753906 63.167969 88.480469 63.019531 C 87.597656 62.546875 87.265625 61.449219 87.742188 60.566406 L 103.339844 31.664062 C 103.816406 30.785156 104.917969 30.457031 105.796875 30.929688 C 106.679688 31.40625 107.011719 32.503906 106.535156 33.382812 L 90.9375 62.285156 C 90.613281 62.890625 89.984375 63.238281 89.339844 63.238281 Z M 89.339844 63.238281 " fill-opacity="1" fill-rule="nonzero"/><path fill="#000000" d="M 104.941406 63.238281 C 104.296875 63.238281 103.671875 62.894531 103.339844 62.285156 L 87.742188 33.382812 C 87.265625 32.503906 87.597656 31.40625 88.480469 30.929688 C 89.363281 30.457031 90.460938 30.785156 90.9375 31.664062 L 106.535156 60.566406 C 107.011719 61.449219 106.679688 62.546875 105.796875 63.019531 C 105.527344 63.164062 105.230469 63.238281 104.941406 63.238281 Z M 104.941406 63.238281 " fill-opacity="1" fill-rule="nonzero"/><path fill="#000000" d="M 146.1875 63.238281 C 140.277344 63.238281 135.46875 58.6875 135.46875 53.097656 L 135.46875 32.730469 C 135.46875 31.730469 136.28125 30.917969 137.28125 30.917969 C 138.285156 30.917969 139.097656 31.730469 139.097656 32.730469 L 139.097656 53.097656 C 139.097656 56.691406 142.277344 59.613281 146.1875 59.613281 C 150.101562 59.613281 153.28125 56.691406 153.28125 53.097656 L 153.28125 32.730469 C 153.28125 31.730469 154.09375 30.917969 155.09375 30.917969 C 156.097656 30.917969 156.910156 31.730469 156.910156 32.730469 L 156.910156 53.097656 C 156.90625 58.6875 152.097656 63.238281 146.1875 63.238281 Z M 146.1875 63.238281 " fill-opacity="1" fill-rule="nonzero"/><path fill="#000000" d="M 166.703125 65.199219 C 165.699219 65.199219 164.886719 64.390625 164.886719 63.390625 L 164.875 30.5625 C 164.875 29.5625 165.6875 28.75 166.691406 28.75 C 167.691406 28.75 168.503906 29.5625 168.503906 30.5625 L 168.515625 63.390625 C 168.519531 64.390625 167.707031 65.195312 166.703125 65.199219 C 166.707031 65.199219 166.703125 65.199219 166.703125 65.199219 Z M 166.703125 65.199219 " fill-opacity="1" fill-rule="nonzero"/><path fill="#000000" d="M 97.308594 111.277344 C 94 111.277344 91.308594 108.589844 91.308594 105.285156 C 91.308594 101.980469 94 99.292969 97.308594 99.292969 C 100.621094 99.292969 103.3125 101.980469 103.3125 105.285156 C 103.3125 108.589844 100.621094 111.277344 97.308594 111.277344 Z M 97.308594 102.917969 C 96 102.917969 94.9375 103.976562 94.9375 105.285156 C 94.9375 106.59375 96 107.65625 97.308594 107.65625 C 98.621094 107.65625 99.683594 106.59375 99.683594 105.285156 C 99.683594 103.976562 98.621094 102.917969 97.308594 102.917969 Z M 97.308594 102.917969 " fill-opacity="1" fill-rule="nonzero"/><path fill="#000000" d="M 114.8125 111.277344 C 111.503906 111.277344 108.8125 108.589844 108.8125 105.285156 C 108.8125 101.980469 111.503906 99.292969 114.8125 99.292969 C 118.125 99.292969 120.816406 101.980469 120.816406 105.285156 C 120.816406 108.589844 118.125 111.277344 114.8125 111.277344 Z M 114.8125 102.917969 C 113.503906 102.917969 112.441406 103.976562 112.441406 105.285156 C 112.441406 106.59375 113.503906 107.65625 114.8125 107.65625 C 116.125 107.65625 117.1875 106.59375 117.1875 105.285156 C 117.1875 103.976562 116.125 102.917969 114.8125 102.917969 Z M 114.8125 102.917969 " fill-opacity="1" fill-rule="nonzero"/><path fill="#000000" d="M 132.316406 111.277344 C 129.007812 111.277344 126.316406 108.589844 126.316406 105.285156 C 126.316406 101.980469 129.007812 99.292969 132.316406 99.292969 C 135.628906 99.292969 138.320312 101.980469 138.320312 105.285156 C 138.320312 108.589844 135.628906 111.277344 132.316406 111.277344 Z M 132.316406 102.917969 C 131.007812 102.917969 129.945312 103.976562 129.945312 105.285156 C 129.945312 106.59375 131.007812 107.65625 132.316406 107.65625 C 133.628906 107.65625 134.691406 106.59375 134.691406 105.285156 C 134.691406 103.976562 133.628906 102.917969 132.316406 102.917969 Z M 132.316406 102.917969 " fill-opacity="1" fill-rule="nonzero"/><g clip-path="url(#faffbea69f)"><path fill="#000000" d="M 183.753906 120.34375 L 45.871094 120.34375 C 39.660156 120.34375 34.605469 115.300781 34.605469 109.101562 L 34.605469 11.34375 C 34.605469 5.144531 39.660156 0.0976562 45.871094 0.0976562 L 183.753906 0.0976562 C 189.96875 0.0976562 195.019531 5.140625 195.019531 11.34375 L 195.019531 109.101562 C 195.019531 115.300781 189.96875 120.34375 183.753906 120.34375 Z M 45.871094 3.71875 C 41.660156 3.71875 38.234375 7.140625 38.234375 11.34375 L 38.234375 109.101562 C 38.234375 113.300781 41.660156 116.722656 45.871094 116.722656 L 183.753906 116.722656 C 187.964844 116.722656 191.390625 113.300781 191.390625 109.101562 L 191.390625 11.34375 C 191.390625 7.140625 187.964844 3.71875 183.753906 3.71875 Z M 45.871094 3.71875 " fill-opacity="1" fill-rule="nonzero"/></g><g clip-path="url(#983fc09f6b)"><path fill="#000000" d="M 193.207031 93.847656 L 36.421875 93.847656 C 35.417969 93.847656 34.605469 93.039062 34.605469 92.039062 C 34.605469 91.039062 35.417969 90.226562 36.421875 90.226562 L 193.207031 90.226562 C 194.207031 90.226562 195.019531 91.039062 195.019531 92.039062 C 195.019531 93.039062 194.207031 93.847656 193.207031 93.847656 Z M 193.207031 93.847656 " fill-opacity="1" fill-rule="nonzero"/></g><path fill="#000000" d="M 143.808594 137.066406 C 142.804688 137.066406 141.992188 136.253906 141.992188 135.253906 L 141.992188 118.535156 C 141.992188 117.535156 142.804688 116.722656 143.808594 116.722656 C 144.808594 116.722656 145.621094 117.535156 145.621094 118.535156 L 145.621094 135.253906 C 145.621094 136.253906 144.808594 137.066406 143.808594 137.066406 Z M 86.679688 137.066406 C 85.679688 137.066406 84.863281 136.253906 84.863281 135.253906 L 84.863281 118.535156 C 84.863281 117.535156 85.679688 116.722656 86.679688 116.722656 C 87.679688 116.722656 88.492188 117.535156 88.492188 118.535156 L 88.492188 135.253906 C 88.492188 136.253906 87.679688 137.066406 86.679688 137.066406 Z M 86.679688 137.066406 " fill-opacity="1" fill-rule="nonzero"/><g clip-path="url(#2b5693401e)"><path fill="#000000" d="M 153.6875 149.929688 L 75.941406 149.929688 C 71.386719 149.929688 67.683594 146.230469 67.683594 141.691406 C 67.683594 137.144531 71.390625 133.449219 75.941406 133.449219 L 153.6875 133.449219 C 158.242188 133.449219 161.945312 137.148438 161.945312 141.691406 C 161.945312 146.230469 158.242188 149.929688 153.6875 149.929688 Z M 75.941406 137.066406 C 73.390625 137.066406 71.3125 139.140625 71.3125 141.6875 C 71.3125 144.234375 73.390625 146.304688 75.941406 146.304688 L 153.6875 146.304688 C 156.238281 146.304688 158.3125 144.234375 158.3125 141.6875 C 158.3125 139.140625 156.238281 137.066406 153.6875 137.066406 Z M 75.941406 137.066406 " fill-opacity="1" fill-rule="nonzero"/></g></svg>